<?xml version="1.0" standalone="no"?>
<!DOCTYPE svg PUBLIC "-//W3C//DTD SVG 1.1//EN" "http://www.w3.org/Graphics/SVG/1.1/DTD/svg11.dtd">
<svg class="icon" style="width: 1em;height: 1em;vertical-align: middle;fill: currentColor;overflow: hidden;" viewBox="0 0 1024 1024" version="1.1" xmlns="http://www.w3.org/2000/svg"><path d="M643.498667 85.333333H682.666667v170.496h170.666666c1.194667 0 2.346667 0.085333 3.498667 0.170667H896v255.829333h-42.666667V938.666667h-85.333333v-0.170667H256V938.666667H170.666667V511.829333H128V256h39.168A43.093333 43.093333 0 0 1 170.666667 255.829333h170.666666V85.333333h39.168A43.093333 43.093333 0 0 1 384 85.162667h256c1.194667 0 2.346667 0.085333 3.498667 0.170666zM256 853.162667h85.333333v-213.333334h85.333334v213.333334h341.333333v-341.333334H256v341.333334z m170.666667-512H213.333333v85.333333h597.333334v-85.333333h-213.333334v-170.666667h-170.666666v170.666667z" fill="#9cdf7e" /></svg>