<?xml version="1.0" standalone="no"?>
<!DOCTYPE svg PUBLIC "-//W3C//DTD SVG 1.1//EN" "http://www.w3.org/Graphics/SVG/1.1/DTD/svg11.dtd">
<svg class="icon" style="width: 1em;height: 1em;vertical-align: middle;fill: currentColor;overflow: hidden;" viewBox="0 0 1024 1024" version="1.1" xmlns="http://www.w3.org/2000/svg"><path d="M554.666667 629.418667v89.173333A256 256 0 0 0 213.333333 960H128a341.333333 341.333333 0 0 1 426.666667-330.624zM469.333333 576c-141.44 0-256-114.56-256-256s114.56-256 256-256 256 114.56 256 256-114.56 256-256 256z m0-85.333333c94.293333 0 170.666667-76.373333 170.666667-170.666667s-76.373333-170.666667-170.666667-170.666667-170.666667 76.373333-170.666666 170.666667 76.373333 170.666667 170.666666 170.666667z m256 256v-128h85.333334v128h128v85.333333h-128v128h-85.333334v-128h-128v-85.333333h128z" fill="#9cdf7e" /></svg>